# xmcd
#
# Track frame offsets: 
#        150
#        11637
#        25085
#        39052
#        49705
#        63262
#        77380
#        90767
#        102715
#        111410
#        120655
#        133200
#        144780
#        155877
#        165302
#        179665
#        191512
#        204470
#        214825
#        226935
#        239860
#        251290
#        266000
#        280667
#        290112
#        303267
#        314467
#        323847
#        336757
#        350045
#
# Disc length: 4837 seconds
#
# Revision: 2
# Processed by: cddbd v1.5.2PL0 Copyright (c) Steve Scherf et al.
# Submitted via: ExactAudioCopyFreeDBPlugin 1.0
#
DISCID=b212e31e
DTITLE=Various Artist - Sweet Soul Music:  411 Scorching Classics, 19
DTITLE=61-1975 [Bear Family]
DYEAR=2008
DGENRE=Soul
TTITLE0=The Radiants - Voice Your Choice
TTITLE1=The Ad Libs - The Boy from New York City
TTITLE2=Joe Tex - Hold What You've Got
TTITLE3=Alvin Cash and The Crawlers - Twine Time
TTITLE4=Fontella Bass and Bobby McClure - Don't Mess Up a Good Thing (
TTITLE4=with Oliver Sain and Orchestra)
TTITLE5=The Temptations - My Girl
TTITLE6=Jr. Walker and The All Stars - Shotgun
TTITLE7=The Impressions - People Get Ready
TTITLE8=Solomon Burke - Got to Get You Off My Mind
TTITLE9=The Dixie Cups - Iko Iko
TTITLE10=Marvin Gaye - I'll Be Doggone
TTITLE11=Tony Clarke - The Entertainer
TTITLE12=Barbara Lewis - Baby, I'm Yours
TTITLE13=Booker T. and The M.G.'s - Boot-Leg
TTITLE14=Otis Redding - I've Been Loving You Too Long (To Stop Now)
TTITLE15=Little Milton - We're Gonna Make It
TTITLE16=The Supremes - Back in My Arms Again
TTITLE17=Fred Hughes - Oo Wee Baby, I Love You
TTITLE18=The Four Tops - I Can't Help Myself (Sugar Pie, Honey Bunch)
TTITLE19=Lee Dorsey - Ride Your Pony
TTITLE20=Wilson Pickett - In the Midnight Hour
TTITLE21=Billy Stewart - Sitting in the Park
TTITLE22=Ramsey Lewis Trio - The "In" Crowd
TTITLE23=James Brown - Papa's Got A Brand New Bag, Part 1 (ft The Famo
TTITLE23=us Flames)
TTITLE24=The Miracles - The Tracks of My Tears
TTITLE25=Jimmy McCracklin - Think
TTITLE26=Roy Head and The Traits - Treat Her Right
TTITLE27=Fontella Bass - Rescue Me
TTITLE28=Don Covay and The Goodtimers - See Saw
TTITLE29=Kim Weston - Take Me in Your Arms (Rock Me a Little While)
EXTD=
EXTT0=
EXTT1=
EXTT2=
EXTT3=
EXTT4=
EXTT5=
EXTT6=
EXTT7=
EXTT8=
EXTT9=
EXTT10=
EXTT11=
EXTT12=
EXTT13=
EXTT14=
EXTT15=
EXTT16=
EXTT17=
EXTT18=
EXTT19=
EXTT20=
EXTT21=
EXTT22=
EXTT23=
EXTT24=
EXTT25=
EXTT26=
EXTT27=
EXTT28=
EXTT29=
PLAYORDER=
